<svg width="85" height="23" viewBox="0 0 85 23" fill="none" xmlns="http://www.w3.org/2000/svg">
<path id='openBox' d="M1.1499 20H2.1499V21M1.1499 20H0.149902V22H2.1499V21M1.1499 20V7M2.1499 21H82.1499M83.1499 20H82.1499V21M83.1499 20H84.1499V22H82.1499V21M83.1499 20V7M82.1499 6V5H84.1499V7H83.1499M82.1499 6V7H83.1499M82.1499 6H2.1499M1.1499 7H2.1499V6M1.1499 7H0.149902V5H2.1499V6" stroke="#C3FF9C" stroke-width="0.3"/>
<path id='closeBox' d="M1.1499 8H2.1499V9M1.1499 8H0.149902V10H2.1499V9M1.1499 8V7M2.1499 9H3.1499M4.1499 8H3.1499V9M4.1499 8H5.1499V10H3.1499V9M4.1499 8V7M3.1499 6V5H5.1499V7H4.1499M3.1499 6V7H4.1499M3.1499 6H2.1499M1.1499 7H2.1499V6M1.1499 7H0.149902V5H2.1499V6" stroke="#C3FF9C" stroke-width="0.3"/>
</svg>
