<svg width="409" height="76" viewBox="0 0 409 76" fill="none" xmlns="http://www.w3.org/2000/svg">
<path d="M25.65 63.8875H18.05V38.7125H0L38.7125 0L54.15 15.4375L48.2125 21.375L38.7125 11.875L19.95 30.6375H25.65V63.8875Z" fill="#EFFFE5"/>
<path d="M26.125 5.9375H18.05V17.8125L26.125 9.7375V5.9375Z" fill="#EFFFE5"/>
<path d="M37.525 20.6625H33.25V24.9375H37.525V20.6625Z" fill="#EFFFE5"/>
<path d="M33.25 30.1625V25.8875H37.525V30.1625H33.25Z" fill="#EFFFE5"/>
<path d="M38.475 24.9375V20.6625H42.75V24.9375H38.475Z" fill="#EFFFE5"/>
<path d="M42.75 25.8875H38.475V30.1625H42.75V25.8875Z" fill="#EFFFE5"/>
<path d="M76.95 38L55.575 16.8625C38.1287 36.0694 33.8688 54.2193 38.95 76C39.3725 54.4028 40.3272 42.6011 56.05 27.55L68.4 39.1875C59.1762 47.8196 56.4878 53.3281 51.775 63.175L76.95 38Z" fill="#EFFFE5"/>
<path d="M39.425 36.1L33.9625 33.725C29.0233 54.8146 30.7451 62.6293 36.575 74.1C33.8501 57.1409 34.3134 48.726 39.425 36.1Z" fill="#EFFFE5"/>
<path d="M48.7079 50.9278L57.5574 36.1917L58.5014 36.7586L49.6519 51.4948L48.7079 50.9278ZM57.449 42.5412C57.6971 42.0062 57.7058 41.4788 57.4749 40.959C57.2479 40.4415 56.8178 39.9926 56.1846 39.6123C55.7394 39.345 55.3173 39.1829 54.9181 39.1259C54.5189 39.0689 54.1658 39.1049 53.8586 39.2337C53.5515 39.3626 53.3073 39.5736 53.126 39.8668C52.9785 40.1124 52.9063 40.3588 52.9092 40.606C52.916 40.8555 52.9793 41.1023 53.099 41.3465C53.2209 41.5868 53.3755 41.8207 53.5627 42.048C53.75 42.2753 53.9472 42.4903 54.1544 42.6931L55.0937 43.6331C55.4766 44.004 55.8204 44.401 56.125 44.8242C56.4334 45.2496 56.6701 45.6945 56.835 46.1591C57.0037 46.6259 57.0699 47.1069 57.0336 47.602C56.9973 48.0971 56.8259 48.5999 56.5194 49.1103C56.1046 49.8011 55.5628 50.3033 54.894 50.617C54.2276 50.9269 53.4717 51.0291 52.6266 50.9236C51.7875 50.8166 50.896 50.4796 49.9519 49.9127C49.0348 49.3619 48.3237 48.7417 47.8189 48.0521C47.3178 47.3649 47.041 46.6347 46.9883 45.8616C46.9395 45.0908 47.1348 44.3048 47.5742 43.5035L49.6753 44.7652C49.4594 45.1943 49.3809 45.6119 49.4399 46.018C49.4988 46.4241 49.6664 46.8015 49.9426 47.1502C50.2227 47.5011 50.5853 47.8102 51.0305 48.0776C51.4948 48.3564 51.9431 48.5316 52.3753 48.6032C52.8136 48.6732 53.2074 48.6434 53.5568 48.5138C53.9084 48.3804 54.1876 48.146 54.3942 47.8106C54.5747 47.5012 54.6367 47.1938 54.58 46.8883C54.5256 46.5789 54.3795 46.2614 54.1416 45.9358C53.9099 45.6086 53.6152 45.2646 53.2576 44.9036L52.1238 43.7528C51.3027 42.9203 50.7622 42.0814 50.5023 41.2361C50.2485 40.3892 50.3751 39.5437 50.8821 38.6994C51.2993 38.0048 51.8526 37.5095 52.5421 37.2134C53.2354 36.9197 53.9947 36.8248 54.8199 36.9287C55.6474 37.0289 56.4737 37.3267 57.2988 37.8221C58.1354 38.3245 58.7808 38.9105 59.235 39.5801C59.6954 40.2482 59.9515 40.9477 60.0034 41.6785C60.0576 42.4055 59.8912 43.1045 59.504 43.7753L57.449 42.5412Z" fill="#EFFFE5"/>
<path d="M133.376 30.8921H125.078C124.841 29.5312 124.405 28.3257 123.769 27.2756C123.133 26.2106 122.341 25.3083 121.395 24.5687C120.448 23.8291 119.368 23.2745 118.155 22.9047C116.957 22.5201 115.663 22.3278 114.273 22.3278C111.803 22.3278 109.613 22.9491 107.705 24.1915C105.797 25.4192 104.303 27.2238 103.224 29.6052C102.144 31.9718 101.604 34.8636 101.604 38.2804C101.604 41.7564 102.144 44.6851 103.224 47.0665C104.318 49.4331 105.812 51.2229 107.705 52.4358C109.613 53.6339 111.795 54.2329 114.251 54.2329C115.611 54.2329 116.883 54.0554 118.067 53.7004C119.265 53.3306 120.337 52.7908 121.284 52.0808C122.245 51.3708 123.051 50.4981 123.702 49.4627C124.368 48.4273 124.826 47.244 125.078 45.9127L133.376 45.9571C133.065 48.1167 132.392 50.1431 131.357 52.0364C130.336 53.9297 128.998 55.6011 127.341 57.0507C125.684 58.4855 123.747 59.6096 121.528 60.4231C119.309 61.2219 116.846 61.6212 114.14 61.6212C110.146 61.6212 106.581 60.6968 103.445 58.8478C100.31 56.9989 97.8395 54.3291 96.0349 50.8383C94.2303 47.3475 93.3281 43.1615 93.3281 38.2804C93.3281 33.3844 94.2377 29.1984 96.0571 25.7225C97.8764 22.2317 100.354 19.5618 103.49 17.7129C106.626 15.864 110.176 14.9395 114.14 14.9395C116.669 14.9395 119.021 15.2945 121.195 16.0045C123.369 16.7145 125.307 17.7573 127.008 19.1329C128.709 20.4937 130.107 22.1651 131.202 24.1472C132.311 26.1144 133.036 28.3627 133.376 30.8921ZM179.017 38.2804C179.017 43.1763 178.1 47.3697 176.266 50.8605C174.447 54.3365 171.962 56.9989 168.811 58.8478C165.675 60.6968 162.118 61.6212 158.139 61.6212C154.16 61.6212 150.596 60.6968 147.445 58.8478C144.309 56.9841 141.824 54.3143 139.99 50.8383C138.171 47.3475 137.261 43.1615 137.261 38.2804C137.261 33.3844 138.171 29.1984 139.99 25.7225C141.824 22.2317 144.309 19.5618 147.445 17.7129C150.596 15.864 154.16 14.9395 158.139 14.9395C162.118 14.9395 165.675 15.864 168.811 17.7129C171.962 19.5618 174.447 22.2317 176.266 25.7225C178.1 29.1984 179.017 33.3844 179.017 38.2804ZM170.741 38.2804C170.741 34.834 170.202 31.9275 169.122 29.5608C168.057 27.1794 166.578 25.3823 164.684 24.1694C162.791 22.9417 160.609 22.3278 158.139 22.3278C155.669 22.3278 153.487 22.9417 151.594 24.1694C149.701 25.3823 148.214 27.1794 147.134 29.5608C146.069 31.9275 145.537 34.834 145.537 38.2804C145.537 41.7268 146.069 44.6407 147.134 47.0221C148.214 49.3887 149.701 51.1859 151.594 52.4136C153.487 53.6265 155.669 54.2329 158.139 54.2329C160.609 54.2329 162.791 53.6265 164.684 52.4136C166.578 51.1859 168.057 49.3887 169.122 47.0221C170.202 44.6407 170.741 41.7268 170.741 38.2804ZM184.3 61V15.5607H201.34C204.831 15.5607 207.759 16.1672 210.126 17.3801C212.507 18.593 214.305 20.294 215.518 22.4831C216.745 24.6575 217.359 27.1942 217.359 30.0933C217.359 33.0072 216.738 35.5366 215.495 37.6813C214.268 39.8113 212.456 41.4605 210.059 42.6291C207.663 43.7828 204.72 44.3596 201.229 44.3596H189.093V37.526H200.12C202.161 37.526 203.832 37.245 205.134 36.6829C206.436 36.106 207.397 35.2703 208.018 34.1758C208.654 33.0664 208.972 31.7056 208.972 30.0933C208.972 28.4811 208.654 27.1055 208.018 25.9665C207.382 24.8128 206.413 23.9401 205.112 23.3484C203.81 22.742 202.131 22.4388 200.075 22.4388H192.532V61H184.3ZM207.774 40.4103L219.023 61H209.838L198.788 40.4103H207.774ZM222.437 61V15.5607H239.477C242.967 15.5607 245.896 16.1672 248.263 17.3801C250.644 18.593 252.441 20.294 253.654 22.4831C254.882 24.6575 255.496 27.1942 255.496 30.0933C255.496 33.0072 254.874 35.5366 253.632 37.6813C252.404 39.8113 250.592 41.4605 248.196 42.6291C245.8 43.7828 242.856 44.3596 239.366 44.3596H227.229V37.526H238.256C240.297 37.526 241.969 37.245 243.271 36.6829C244.572 36.106 245.534 35.2703 246.155 34.1758C246.791 33.0664 247.109 31.7056 247.109 30.0933C247.109 28.4811 246.791 27.1055 246.155 25.9665C245.519 24.8128 244.55 23.9401 243.248 23.3484C241.947 22.742 240.268 22.4388 238.212 22.4388H230.668V61H222.437ZM245.911 40.4103L257.16 61H247.974L236.925 40.4103H245.911ZM260.573 61V15.5607H290.127V22.4609H268.805V34.797H288.596V41.6972H268.805V54.0998H290.304V61H260.573ZM294.028 22.4609V15.5607H330.282V22.4609H316.238V61H308.073V22.4609H294.028ZM335.116 61H326.33L342.327 15.5607H352.488L368.508 61H359.721L347.585 24.8793H347.23L335.116 61ZM335.404 43.1837H359.366V49.7955H335.404V43.1837ZM371.993 61V15.5607H389.033C392.524 15.5607 395.453 16.1672 397.819 17.3801C400.201 18.593 401.998 20.294 403.211 22.4831C404.438 24.6575 405.052 27.1942 405.052 30.0933C405.052 33.0072 404.431 35.5366 403.189 37.6813C401.961 39.8113 400.149 41.4605 397.753 42.6291C395.356 43.7828 392.413 44.3596 388.922 44.3596H376.786V37.526H387.813C389.854 37.526 391.525 37.245 392.827 36.6829C394.129 36.106 395.09 35.2703 395.711 34.1758C396.347 33.0664 396.665 31.7056 396.665 30.0933C396.665 28.4811 396.347 27.1055 395.711 25.9665C395.075 24.8128 394.107 23.9401 392.805 23.3484C391.503 22.742 389.824 22.4388 387.768 22.4388H380.225V61H371.993ZM395.467 40.4103L406.716 61H397.531L386.482 40.4103H395.467Z" fill="#EFFFE5"/>
</svg>
