<svg width="710" height="799" viewBox="0 0 710 799" fill="none" xmlns="http://www.w3.org/2000/svg">
<path d="M709.722 0L643.175 720.803L354.856 798.434L66.5328 720.803L0 0H709.722ZM575.627 146.564H354.597H129.652L140.409 233.608H354.597H366.628L354.597 238.616L148.238 324.562L155.081 409.645L354.597 410.292L461.531 410.631L454.686 524.078L354.595 552.258V552.169L353.775 552.397L257.113 527.995L251.247 457.573H250.927H161.267H160.952L172.687 593.522L354.598 647.317V647.22L354.927 647.317L535.862 594.502L559.333 324.562H354.598H354.094L354.598 324.344L566.833 233.608L575.627 146.564Z" fill="#C3FF9C"/>
</svg>
