<svg width="120" height="70" viewBox="0 0 120 70" fill="none" xmlns="http://www.w3.org/2000/svg">
<g filter="url(#filter0_d_753_231)">
<path d="M10.9696 27.6419L7 7L24.4662 17.321L15.7331 19.7027L10.9696 27.6419Z" fill="#A5D885"/>
<path d="M7.4039 6.31627L5.88782 5.42041L6.22038 7.14971L10.19 27.7917L10.5821 29.8307L11.6504 28.0502L16.2498 20.3845L24.6751 18.0867L26.4869 17.5926L24.8701 16.6373L7.4039 6.31627Z" stroke="white" stroke-width="1.58784" stroke-linecap="square"/>
</g>
<rect x="26" y="32" width="49" height="30" rx="15" fill="#A5D885"/>
<path d="M40.8153 52H36.9482V41.0909H40.8473C41.9446 41.0909 42.8892 41.3093 43.6811 41.7461C44.473 42.1793 45.082 42.8026 45.5082 43.6158C45.9379 44.429 46.1527 45.402 46.1527 46.5348C46.1527 47.6712 45.9379 48.6477 45.5082 49.4645C45.082 50.2812 44.4695 50.908 43.6705 51.3448C42.875 51.7816 41.9233 52 40.8153 52ZM39.2546 50.0238H40.7195C41.4013 50.0238 41.9748 49.9031 42.44 49.6616C42.9087 49.4165 43.2603 49.0384 43.4947 48.527C43.7326 48.0121 43.8516 47.348 43.8516 46.5348C43.8516 45.7287 43.7326 45.07 43.4947 44.5586C43.2603 44.0472 42.9105 43.6708 42.4453 43.4293C41.9801 43.1879 41.4066 43.0671 40.7248 43.0671H39.2546V50.0238ZM51.5473 52.1598C50.7057 52.1598 49.9813 51.9893 49.374 51.6484C48.7703 51.304 48.3051 50.8175 47.9784 50.1889C47.6517 49.5568 47.4884 48.8093 47.4884 47.9464C47.4884 47.1048 47.6517 46.3661 47.9784 45.7305C48.3051 45.0948 48.765 44.5994 49.358 44.2443C49.9546 43.8892 50.6542 43.7116 51.4568 43.7116C51.9965 43.7116 52.499 43.7987 52.9642 43.9727C53.433 44.1431 53.8414 44.4006 54.1894 44.745C54.5409 45.0895 54.8144 45.5227 55.0097 46.0447C55.205 46.5632 55.3026 47.1705 55.3026 47.8665V48.4897H48.3939V47.0835H53.1666C53.1666 46.7567 53.0956 46.4673 52.9536 46.2152C52.8115 45.9631 52.6144 45.766 52.3623 45.6239C52.1137 45.4783 51.8243 45.4055 51.4941 45.4055C51.1496 45.4055 50.8442 45.4854 50.5779 45.6452C50.3151 45.8015 50.1091 46.0128 49.96 46.2791C49.8108 46.5419 49.7345 46.8349 49.7309 47.158V48.495C49.7309 48.8999 49.8055 49.2496 49.9546 49.5444C50.1073 49.8391 50.3222 50.0664 50.5992 50.2262C50.8762 50.386 51.2046 50.4659 51.5846 50.4659C51.8367 50.4659 52.0676 50.4304 52.2771 50.3594C52.4866 50.2884 52.6659 50.1818 52.8151 50.0398C52.9642 49.8977 53.0779 49.7237 53.156 49.5178L55.2547 49.6562C55.1482 50.1605 54.9298 50.6009 54.5995 50.9773C54.2728 51.3501 53.8502 51.6413 53.3318 51.8509C52.8169 52.0568 52.222 52.1598 51.5473 52.1598ZM64.1916 43.8182L61.3311 52H58.7743L55.9139 43.8182H58.3109L60.0101 49.6722H60.0953L61.7892 43.8182H64.1916Z" fill="white"/>
<defs>
<filter id="filter0_d_753_231" x="0.012115" y="0.665141" width="33.2591" height="37.7058" filterUnits="userSpaceOnUse" color-interpolation-filters="sRGB">
<feFlood flood-opacity="0" result="BackgroundImageFix"/>
<feColorMatrix in="SourceAlpha" type="matrix" values="0 0 0 0 0 0 0 0 0 0 0 0 0 0 0 0 0 0 127 0" result="hardAlpha"/>
<feOffset dy="1.58784"/>
<feGaussianBlur stdDeviation="2.38176"/>
<feColorMatrix type="matrix" values="0 0 0 0 0 0 0 0 0 0 0 0 0 0 0 0 0 0 0.35 0"/>
<feBlend mode="normal" in2="BackgroundImageFix" result="effect1_dropShadow_753_231"/>
<feBlend mode="normal" in="SourceGraphic" in2="effect1_dropShadow_753_231" result="shape"/>
</filter>
</defs>
</svg>
