<svg width="800" height="800" viewBox="0 0 800 800" fill="none" xmlns="http://www.w3.org/2000/svg">
<path d="M502.156 0.78125H371.605V199.852C352.1 194.769 336.002 193.073 314.802 193.073C178.319 193.073 90.1437 279.542 90.1437 412.636C90.1437 550.825 173.231 622.88 332.614 622.88C385.997 622.88 435.175 617.795 502.158 605.08V0.78125H502.156ZM371.605 514.38C352.952 516.916 341.084 517.758 326.675 517.758C259.698 517.758 223.242 479.619 223.242 410.095C223.242 338.887 261.387 298.195 327.528 298.195C343.627 298.195 356.336 299.889 371.605 304.973V514.38ZM709.858 1.48281V135.43H579.3V1.48281H709.858ZM579.3 202.394H709.858V505.048C709.858 609.322 702.219 659.334 679.331 702.575C658.144 744.122 630.166 770.392 572.511 799.219L451.278 741.569C508.917 714.445 536.919 690.722 554.711 654.252C573.358 616.948 579.3 573.714 579.3 460.108V202.394Z" fill="#C3FF9C"/>
</svg>
