<svg width="800" height="800" viewBox="0 0 800 800" fill="none" xmlns="http://www.w3.org/2000/svg">
<path d="M283.333 66.667C228.105 66.667 183.333 111.439 183.333 166.667C183.333 221.895 228.105 266.667 283.333 266.667H516.667C571.897 266.667 616.667 221.895 616.667 166.667C616.667 111.439 571.897 66.667 516.667 66.667H283.333Z" fill="#C3FF9C"/>
<path d="M516.667 300C461.437 300 416.667 344.77 416.667 400C416.667 455.23 461.437 500 516.667 500C571.897 500 616.667 455.23 616.667 400C616.667 344.77 571.897 300 516.667 300Z" fill="#C3FF9C"/>
<path d="M183.333 400C183.333 344.77 228.105 300 283.333 300H383.333V500H283.333C228.105 500 183.333 455.23 183.333 400Z" fill="#C3FF9C"/>
<path d="M283.333 533.333C228.105 533.333 183.333 578.103 183.333 633.333C183.333 688.563 228.105 733.333 283.333 733.333C338.563 733.333 383.333 688.563 383.333 633.333V533.333H283.333Z" fill="#C3FF9C"/>
</svg>
