<svg width="529" height="100" viewBox="0 0 529 100" fill="none" xmlns="http://www.w3.org/2000/svg">
<path d="M129.613 86.4828V12.111H142.674V86.4828H129.613Z" fill="#FFDF00"/>
<path d="M154.731 24.1713V73.4175H179.85V86.4828H154.731V99.0456H191.907V24.1713H179.85V61.3572H166.788V24.1713H154.731Z" fill="#FFDF00"/>
<path d="M154.731 99.5482V99.0456H191.907V99.5482H154.731Z" fill="#FFDF00"/>
<path d="M87.4131 0H117.1H117.556V12.0603H117.053H99.8625V85.9296V86.496H117.556V99.5482H87.4131V0Z" fill="#0050B0"/>
<path fill-rule="evenodd" clip-rule="evenodd" d="M13.0617 12.5628H0V86.9347H13.0617V99.4975H62.2944V86.9347H75.3561V12.5628H62.2944V0H13.0617V12.5628ZM13.0617 12.5628V86.9347H62.2944V12.5628H13.0617Z" fill="#FFDF00"/>
<path d="M216.021 36.7341V86.9853H203.964V24.1713H216.021H228.078H240.135H252.192H264.249V86.9853H252.192V36.7341H240.135V86.9853H228.078V36.7341H216.021Z" fill="#FFDF00"/>
<path d="M203.964 87.4879V86.9853H216.021V87.4879H203.964Z" fill="#FFDF00"/>
<path d="M228.078 87.4879V86.9853H240.135V87.4879H228.078Z" fill="#FFDF00"/>
<path d="M252.192 87.4879V86.9853H264.249V87.4879H252.192Z" fill="#FFDF00"/>
<path fill-rule="evenodd" clip-rule="evenodd" d="M314.486 24.1713H276.306V99.0456H289.367V73.4175H314.486V24.1713ZM289.367 36.2316H301.424V61.3572H289.367V36.2316Z" fill="#FFDF00"/>
<path d="M276.306 99.5482V99.0456H289.367V99.5482H276.306Z" fill="#FFDF00"/>
<path d="M325.539 24.1713H338.6V36.2316H325.539V24.1713Z" fill="#FFDF00"/>
<path d="M338.6 48.7944H325.539V86.9853H338.6V48.7944Z" fill="#FFDF00"/>
<path d="M325.539 87.4879V86.9853H338.6V87.4879H325.539Z" fill="#FFDF00"/>
<path fill-rule="evenodd" clip-rule="evenodd" d="M351.662 86.9853H389.842V24.1713H351.662V36.2316H376.781V48.7944H351.662V86.9853ZM364.724 61.3572H376.781V73.4175H364.724V61.3572Z" fill="#FFDF00"/>
<path d="M351.662 87.4879V86.9853H389.842V87.4879H351.662Z" fill="#FFDF00"/>
<path fill-rule="evenodd" clip-rule="evenodd" d="M426.516 24.1713H400.895V86.9853H439.075V0.0506668H426.516V24.1713ZM426.516 36.2316H413.454V73.4175H426.516V36.2316Z" fill="#FFDF00"/>
<path d="M400.895 87.4879V86.9853H439.075V87.4879H400.895Z" fill="#FFDF00"/>
<path d="M450.127 24.1713H487.303V36.2316H462.184V48.7944H487.303V86.9853H450.127V73.4175H474.744V61.3572H450.127V24.1713Z" fill="#FFDF00"/>
<path d="M450.127 87.4879V86.9853H487.303L486.801 87.4879H450.127Z" fill="#FFDF00"/>
<path d="M529 0.0506668H498.355V12.111H516.943V87.4879H498.858V99.5482H529V0.0506668Z" fill="#0050B0"/>
<path d="M498.355 87.4879H498.858V99.5482H498.355V87.4879Z" fill="#0050B0"/>
</svg>
