<svg width="403" height="76" viewBox="0 0 403 76" fill="none" xmlns="http://www.w3.org/2000/svg">
<path d="M98.5056 65.7277V9.20508H108.433V65.7277H98.5056Z" fill="#EFFFE5"/>
<path d="M117.596 18.3701V55.7973H136.686V65.7269H117.596V75.2746H145.849V18.3701H136.686V46.6314H126.759V18.3701H117.596Z" fill="#EFFFE5"/>
<path d="M117.596 75.6565V75.2746H145.849V75.6565H117.596Z" fill="#EFFFE5"/>
<path d="M66.4338 0H88.9961H89.3421V9.16581H88.9603H75.8954V65.3065V65.7369H89.3421V75.6566H66.4338V0Z" fill="#EFFFE5"/>
<path fill-rule="evenodd" clip-rule="evenodd" d="M9.92691 9.54774H0V66.0704H9.92691V75.6181H47.3437V66.0704H57.2707V9.54774H47.3437V0H9.92691V9.54774ZM9.92691 9.54774V66.0704H47.3437V9.54774H9.92691Z" fill="#EFFFE5"/>
<path d="M164.176 27.9179V66.1088H155.012V18.3701H164.176H173.339H182.502H191.666H200.829V66.1088H191.666V27.9179H182.502V66.1088H173.339V27.9179H164.176Z" fill="#EFFFE5"/>
<path d="M155.012 66.4907V66.1088H164.176V66.4907H155.012Z" fill="#EFFFE5"/>
<path d="M173.339 66.4907V66.1088H182.502V66.4907H173.339Z" fill="#EFFFE5"/>
<path d="M191.666 66.4907V66.1088H200.829V66.4907H191.666Z" fill="#EFFFE5"/>
<path fill-rule="evenodd" clip-rule="evenodd" d="M239.009 18.3701H209.992V75.2746H219.919V55.7973H239.009V18.3701ZM219.919 27.5359H229.082V46.6314H219.919V27.5359Z" fill="#EFFFE5"/>
<path d="M209.992 75.6565V75.2746H219.919V75.6565H209.992Z" fill="#EFFFE5"/>
<path d="M247.409 18.3701H257.336V27.5359H247.409V18.3701Z" fill="#EFFFE5"/>
<path d="M257.336 37.0837H247.409V66.1088H257.336V37.0837Z" fill="#EFFFE5"/>
<path d="M247.409 66.4907V66.1088H257.336V66.4907H247.409Z" fill="#EFFFE5"/>
<path fill-rule="evenodd" clip-rule="evenodd" d="M267.263 66.1088H296.28V18.3701H267.263V27.5359H286.353V37.0837H267.263V66.1088ZM277.19 46.6314H286.353V55.7973H277.19V46.6314Z" fill="#EFFFE5"/>
<path d="M267.263 66.4907V66.1088H296.28V66.4907H267.263Z" fill="#EFFFE5"/>
<path fill-rule="evenodd" clip-rule="evenodd" d="M324.152 18.3707H304.68V66.1094H333.697V0.0390625H324.152V18.3707ZM324.152 27.5366H314.225V55.7979H324.152V27.5366Z" fill="#EFFFE5"/>
<path d="M304.68 66.4913V66.1094H333.697V66.4913H304.68Z" fill="#EFFFE5"/>
<path d="M342.097 18.3701H370.35V27.5359H351.26V37.0837H370.35V66.1088H342.097V55.7973H360.805V46.6314H342.097V18.3701Z" fill="#EFFFE5"/>
<path d="M342.097 66.4907V66.1088H370.35L369.968 66.4907H342.097Z" fill="#EFFFE5"/>
<path d="M402.04 0.0390625H378.75V9.20489H392.877V66.4913H379.132V75.6572H402.04V0.0390625Z" fill="#EFFFE5"/>
<path d="M378.75 66.4913H379.132V75.6572H378.75V66.4913Z" fill="#EFFFE5"/>
</svg>
