<svg width="321" height="93" viewBox="0 0 321 93" fill="none" xmlns="http://www.w3.org/2000/svg">
<path d="M25.9578 75.9023C12.25 66.9438 1.46756 61.1404 0.13805 52.323C-0.0445429 51.112 1.09272 50.2094 2.30382 50.3913C7.75693 51.2099 11.4758 50.8863 16.0495 49.3731C18.5038 48.5611 20.6626 47.0575 22.536 45.276C33.9516 34.4204 40.3619 30.5273 45.8066 29.5L56.134 72C50.8488 84.5871 46.0085 87.7592 34.4335 91.6826C33.1904 92.104 31.8981 91.2132 31.7867 89.9054C31.1831 82.8182 29.8106 79.5387 26.2367 76.1229C26.1515 76.0415 26.0564 75.9668 25.9578 75.9023Z" fill="#FD1024"/>
<path d="M42.808 72V16.542H65.506C75.568 16.542 82.822 20.754 85.864 27.852C86.878 30.192 87.268 32.688 87.268 35.34C87.268 44.622 81.886 49.926 74.632 52.188C71.902 53.046 68.86 53.436 65.506 53.436H56.224V72H42.808ZM56.224 42.204H65.506C70.888 42.204 73.852 40.098 73.852 35.418C73.852 30.582 70.81 27.774 65.506 27.774H56.224V42.204ZM88.1187 52.812V51.408C88.1187 41.814 92.6427 34.716 99.8967 31.674C102.393 30.582 105.201 30.036 108.321 30.036C121.113 30.036 127.431 38.46 127.431 50.55V55.932H101.379C102.315 59.598 105.201 61.938 110.271 61.938C114.639 61.938 117.447 60.3 119.397 57.726L120.099 56.79L126.807 64.356L126.339 64.98C122.985 69.582 117.447 72.78 109.491 72.78C99.1947 72.78 92.4087 67.632 89.5227 60.456C88.5087 58.038 88.1187 55.542 88.1187 52.812ZM101.535 47.508H114.639C114.639 43.218 112.455 40.878 108.243 40.878C104.109 40.878 102.237 43.608 101.535 47.508ZM128.944 40.8V30.816H135.028V20.676H147.976V30.816H154.996V40.8H147.976V58.74C147.976 61.158 148.6 61.782 151.174 61.782C152.344 61.782 153.436 61.704 154.216 61.47L155.464 61.158V71.532L154.684 71.766C152.656 72.312 150.472 72.78 147.742 72.78C139.318 72.78 135.028 68.334 135.028 60.378V40.8H128.944ZM159.016 72V16.542H172.432V37.68H189.124V16.542H202.54V72H189.124V49.38H172.432V72H159.016ZM206.267 52.812V51.408C206.267 41.814 210.791 34.716 218.045 31.674C220.541 30.582 223.349 30.036 226.469 30.036C239.261 30.036 245.579 38.46 245.579 50.55V55.932H219.527C220.463 59.598 223.349 61.938 228.419 61.938C232.787 61.938 235.595 60.3 237.545 57.726L238.247 56.79L244.955 64.356L244.487 64.98C241.133 69.582 235.595 72.78 227.639 72.78C217.343 72.78 210.557 67.632 207.671 60.456C206.657 58.038 206.267 55.542 206.267 52.812ZM219.683 47.508H232.787C232.787 43.218 230.603 40.878 226.391 40.878C222.257 40.878 220.385 43.608 219.683 47.508ZM249.433 72V30.816H261.835L261.991 33.858C264.019 31.596 266.671 30.036 270.337 30.036C271.585 30.036 273.067 30.27 274.003 30.504L274.783 30.738L274.549 43.14L273.535 43.062C272.365 42.984 270.727 42.75 269.635 42.75C265.657 42.75 263.629 43.92 262.381 46.026V72H249.433ZM276.425 51.798V51.096C276.425 41.502 280.949 34.716 288.203 31.674C290.777 30.504 293.663 30.036 296.861 30.036C307.001 30.036 313.397 35.418 316.049 42.75C316.907 45.324 317.453 48.054 317.453 51.018V51.72C317.453 61.314 312.929 68.1 305.675 71.142C303.101 72.312 300.137 72.78 296.939 72.78C286.799 72.78 280.325 67.398 277.673 60.066C276.737 57.492 276.425 54.762 276.425 51.798ZM289.373 51.798C289.373 57.726 291.245 61.938 296.939 61.938C302.477 61.938 304.505 57.648 304.505 51.798V51.018C304.505 45.168 302.399 40.878 296.861 40.878C291.323 40.878 289.373 45.246 289.373 51.018V51.798Z" fill="#003E52"/>
</svg>
