<svg width="321" height="49" viewBox="0 0 321 49" fill="none" xmlns="http://www.w3.org/2000/svg">
<path d="M95.6128 0.474609H102.436V30.7408C102.436 33.4611 102.959 35.7287 104.005 37.5419C105.051 39.3107 106.484 40.6252 108.304 41.4869C110.124 42.3034 112.171 42.7117 114.445 42.7117C116.764 42.7117 118.811 42.3034 120.586 41.4869C122.405 40.6252 123.838 39.3107 124.884 37.5419C125.931 35.7287 126.454 33.4611 126.454 30.7408V0.474609H133.277V30.605C133.277 33.6883 132.754 36.3633 131.707 38.6309C130.707 40.8523 129.296 42.7117 127.477 44.2072C125.703 45.6583 123.679 46.7464 121.405 47.4724C119.176 48.1975 116.833 48.5605 114.377 48.5605C111.101 48.5605 108.031 47.9259 105.165 46.6559C102.299 45.3414 99.9792 43.3685 98.2055 40.7387C96.477 38.0637 95.6128 34.6858 95.6128 30.605V0.474609Z" fill="#EFFFE5"/>
<path d="M141.134 24.2808C141.134 20.6988 141.748 17.4344 142.976 14.487C144.204 11.4943 145.91 8.93204 148.094 6.80109C150.277 4.62487 152.802 2.94744 155.667 1.76797C158.578 0.58932 161.717 0 165.083 0C169.859 0 174.113 1.11115 177.843 3.33264C181.619 5.55413 184.484 8.75096 186.44 12.9223L180.981 14.8952C179.89 12.7635 178.502 11.0408 176.819 9.72631C175.136 8.41103 173.294 7.43651 171.292 6.80109C169.291 6.1665 167.267 5.84879 165.22 5.84879C161.99 5.84879 159.056 6.59696 156.418 8.09332C153.825 9.58967 151.778 11.7206 150.277 14.487C148.821 17.2525 148.094 20.5177 148.094 24.2808C148.094 27.9986 148.821 31.2407 150.277 34.0071C151.778 36.7727 153.825 38.9267 156.418 40.4683C159.056 41.9646 161.99 42.7128 165.22 42.7128C167.313 42.7128 169.382 42.3721 171.429 41.6922C173.476 41.0123 175.386 39.9242 177.161 38.4279C178.934 36.8862 180.39 34.8911 181.527 32.4424L186.986 34.347C184.939 39.153 182.005 42.735 178.184 45.0932C174.363 47.4052 169.996 48.5616 165.083 48.5616C161.717 48.5616 158.578 47.9723 155.667 46.7936C152.802 45.6141 150.277 43.9367 148.094 41.7605C145.91 39.5835 144.204 37.022 142.976 34.0746C141.748 31.0819 141.134 27.8176 141.134 24.2808Z" fill="#EFFFE5"/>
<path d="M195.902 0.474609H202.726V21.0828H226.743V0.474609H233.498V48.0847H226.743V26.7958H202.726V48.0847H195.902V0.474609Z" fill="#EFFFE5"/>
<path d="M276.277 6.18842H251.168V21.0828H270V26.7958H251.168V42.3709H276.277V48.0847H244.344V0.474609H276.277V6.18842Z" fill="#EFFFE5"/>
<path d="M313.154 14.69C313.154 12.1055 312.38 10.0421 310.833 8.50044C309.287 6.95881 306.831 6.18842 303.464 6.18842H292.547V23.1232H303.533C305.761 23.1232 307.58 22.7833 308.991 22.1035C310.401 21.3775 311.447 20.3799 312.13 19.1107C312.812 17.8407 313.154 16.3674 313.154 14.69ZM303.464 0.474609C307.24 0.474609 310.333 1.13225 312.744 2.44753C315.201 3.71672 317.02 5.41719 318.202 7.54814C319.43 9.67908 320.044 12.0603 320.044 14.69C320.044 16.4127 319.749 18.1132 319.158 19.7906C318.566 21.4689 317.611 23.0105 316.292 24.4155C314.973 25.776 313.244 26.8641 311.107 27.6806C309.013 28.451 306.489 28.8362 303.533 28.8362H292.547V48.0847H285.724V0.474609H303.464ZM307.831 26.5242L321 48.0847H313.289L300.598 26.5242H307.831Z" fill="#EFFFE5"/>
<path fill-rule="evenodd" clip-rule="evenodd" d="M23.2673 22.1035C21.8572 22.7833 20.0377 23.1232 17.8087 23.1232C17.8087 23.1232 11.1134 23.1232 6.82324 23.1232C4.1586 23.1232 0 23.1232 0 23.1232V48.0847H6.82324V28.8362H17.8087C20.7654 28.8362 23.2901 28.451 25.3826 27.6806C27.5205 26.8641 29.2491 25.776 30.5682 24.4155C31.8874 23.0557 32.8426 21.5363 33.434 19.8589C34.0253 18.1354 34.321 16.4127 34.321 14.69C34.321 12.1055 33.7069 9.74741 32.4787 7.61646C31.2961 5.44024 29.4765 3.71672 27.0201 2.44753C24.6092 1.13225 21.5388 0.474609 17.8087 0.474609H0V6.18842H6.82324H17.8087C21.1748 6.18842 23.6312 6.93659 25.1779 8.43294C26.7244 9.92848 27.4977 12.015 27.4977 14.69C27.4977 16.3674 27.1566 17.8407 26.4742 19.1107C25.792 20.3799 24.723 21.3775 23.2673 22.1035Z" fill="#EFFFE5"/>
<path d="M46.744 6.80109C44.5604 8.97813 42.855 11.5396 41.6261 14.487C40.7989 16.4739 40.25 18.6049 39.98 20.8798H46.9556C47.2683 18.4913 47.9252 16.3603 48.9277 14.487C50.4281 11.7206 52.4751 9.58967 55.0686 8.09332C57.6613 6.59696 60.5948 5.84879 63.8706 5.84879C67.1004 5.84879 69.9886 6.59696 72.536 8.09332C75.1287 9.58967 77.1757 11.7206 78.677 14.487C79.71 16.3603 80.3882 18.4913 80.71 20.8798H87.6247C87.3547 18.6049 86.8057 16.4739 85.9777 14.487C84.7497 11.5396 83.0434 8.97813 80.8606 6.80109C78.677 4.62488 76.1296 2.94744 73.2183 1.76797C70.3071 0.58932 67.1909 0 63.8706 0C60.5043 0 57.3428 0.58932 54.3863 1.76797C51.4751 2.94744 48.9277 4.62488 46.744 6.80109Z" fill="#EFFFE5"/>
<path d="M54.3867 46.7935C57.3431 47.9721 60.5046 48.5615 63.871 48.5615C67.1913 48.5615 70.3074 47.9721 73.2187 46.7935C76.1299 45.614 78.6773 43.9588 80.861 41.8279C83.0438 39.6517 84.75 37.0902 85.978 34.1428C86.8069 32.123 87.3559 29.969 87.6258 27.6816H80.7062C80.3827 30.0472 79.7062 32.1781 78.6773 34.0745C77.176 36.8409 75.129 38.9718 72.5363 40.4682C69.9889 41.9645 67.1007 42.7127 63.871 42.7127C60.5951 42.7127 57.6617 41.9645 55.069 40.4682C52.4755 38.9718 50.4285 36.8409 48.928 34.0745C47.9296 32.1781 47.2736 30.0472 46.96 27.6816H39.9795C40.2486 29.969 40.7976 32.123 41.6265 34.1428C42.8553 37.0902 44.5607 39.6517 46.7444 41.8279C48.928 43.9588 51.4754 45.614 54.3867 46.7935Z" fill="#EFFFE5"/>
<path d="M63.7623 17.2842C63.6635 17.3204 63.6479 17.3401 63.5944 17.429C63.5615 17.513 63.5368 17.5986 63.5113 17.685C63.503 17.7114 63.4956 17.7369 63.4874 17.7632C63.4709 17.8192 63.4545 17.8752 63.4372 17.9303C63.4108 18.0192 63.3845 18.1073 63.3582 18.1953C63.2767 18.4653 63.196 18.7361 63.1162 19.0061C63.0841 19.1155 63.052 19.225 63.0191 19.3345C62.9968 19.4102 62.9746 19.4859 62.9532 19.5616C62.7483 20.2571 62.4248 20.8893 61.9902 21.4679C61.9696 21.495 61.9499 21.5222 61.9285 21.5502C61.6248 21.9412 61.2527 22.3058 60.8437 22.5848C60.8256 22.598 60.8075 22.6103 60.7885 22.6235C60.1696 23.0474 59.4963 23.3165 58.7794 23.5289C58.6946 23.5544 58.6098 23.5799 58.5251 23.6054C58.2732 23.6811 58.0213 23.756 57.7678 23.8285C57.6699 23.8565 57.5719 23.8853 57.4732 23.9132C57.4057 23.933 57.3382 23.9519 57.2707 23.97C57.2295 23.9824 57.1884 23.9939 57.1472 24.0063C57.1118 24.0161 57.0764 24.026 57.0402 24.0359C56.9349 24.0803 56.8781 24.1305 56.8048 24.2178C56.7884 24.291 56.7884 24.291 56.8048 24.361C56.8904 24.4664 56.9694 24.5001 57.0987 24.538C57.125 24.5462 57.125 24.5462 57.1522 24.5544C57.2106 24.5717 57.269 24.5882 57.3283 24.6055C57.3695 24.617 57.4106 24.6293 57.4518 24.6417C57.5612 24.6738 57.6707 24.7059 57.7802 24.7371C57.8888 24.7692 57.9975 24.8014 58.1061 24.8326C58.1275 24.8392 58.1489 24.845 58.1703 24.8516C58.2131 24.8639 58.2559 24.8771 58.2979 24.8894C58.3399 24.9018 58.3818 24.9141 58.4246 24.9265C58.6839 25.0022 58.9424 25.0796 59.2 25.161C59.2362 25.1726 59.2362 25.1726 59.2732 25.1841C60.3934 25.5446 61.3828 26.2434 62.0758 27.1973C62.0882 27.213 62.0997 27.2294 62.112 27.2467C62.2659 27.4607 62.3993 27.6846 62.5236 27.9167C62.5351 27.9389 62.5474 27.9603 62.5598 27.9834C62.8405 28.5208 62.9977 29.1135 63.1664 29.6921C63.196 29.7941 63.2257 29.8962 63.2561 29.9974C63.2734 30.0575 63.2915 30.1176 63.3088 30.1769C63.3203 30.2156 63.3318 30.2542 63.3434 30.2937C63.3952 30.4699 63.4471 30.6468 63.4956 30.8238C63.5014 30.8469 63.508 30.8699 63.5146 30.8938C63.5302 30.9506 63.5458 31.0074 63.5607 31.0642C63.5969 31.1572 63.6306 31.2032 63.7088 31.2642C63.7944 31.2806 63.7944 31.2806 63.8808 31.2642C63.9705 31.1695 64.015 31.0847 64.0512 30.9604C64.0611 30.9283 64.0701 30.8971 64.08 30.8641C64.0899 30.8304 64.0998 30.7958 64.1105 30.7604C64.1261 30.7053 64.1426 30.6501 64.159 30.595C64.1821 30.5176 64.2043 30.4403 64.2273 30.3629C64.2545 30.2682 64.2825 30.1736 64.3105 30.0798C64.3162 30.0608 64.3212 30.0427 64.3269 30.023C64.3385 29.9859 64.3492 29.9481 64.3607 29.911C64.3771 29.8542 64.3936 29.7983 64.4101 29.7415C64.4883 29.4773 64.5681 29.2139 64.6488 28.9505C64.6644 28.9003 64.6644 28.9003 64.68 28.8492C64.8973 28.1472 65.234 27.4977 65.7138 26.9389C65.7352 26.9142 65.7558 26.8895 65.778 26.864C65.8414 26.7924 65.9056 26.7224 65.9723 26.6525C65.9846 26.6385 65.9978 26.6245 66.0118 26.6105C67.0653 25.487 68.4892 25.1133 69.9189 24.6927C69.9502 24.6837 69.9815 24.6746 70.0136 24.6647C70.142 24.6269 70.2712 24.589 70.4012 24.5561C70.4547 24.5421 70.4547 24.5421 70.5091 24.5281C70.5387 24.5215 70.5675 24.5141 70.598 24.5067C70.691 24.4664 70.7305 24.4178 70.7848 24.3322C70.7848 24.2433 70.7848 24.2433 70.756 24.161C70.6687 24.0795 70.5799 24.0499 70.4663 24.017C70.4301 24.0063 70.3947 23.9956 70.3576 23.9849C70.3387 23.9791 70.3198 23.9742 70.3 23.9684C70.2399 23.9511 70.179 23.933 70.1181 23.9149C70.0103 23.8828 69.9025 23.8515 69.7938 23.8202C69.2761 23.6688 68.7584 23.5173 68.2464 23.347C68.1938 23.3297 68.1938 23.3297 68.1403 23.3116C67.4341 23.0737 66.8118 22.6893 66.2645 22.1848C66.2093 22.1346 66.1533 22.0868 66.0957 22.0391C65.9846 21.9444 65.8933 21.8383 65.8002 21.7255C65.7813 21.7041 65.7813 21.7041 65.7624 21.6819C65.1994 21.0152 64.8422 20.2481 64.5895 19.4176C64.5656 19.341 64.5418 19.2637 64.5187 19.1871C64.4315 18.904 64.3475 18.62 64.266 18.3361C64.2487 18.2776 64.2323 18.22 64.2158 18.1624C64.1837 18.0513 64.1524 17.9402 64.1212 17.8291C64.1072 17.778 64.0924 17.727 64.0775 17.6768C64.0685 17.6422 64.0685 17.6422 64.0586 17.6068C64.0125 17.448 63.95 17.2883 63.7623 17.2842Z" fill="#EFFFE5"/>
</svg>
