<svg width="390" height="59" viewBox="0 0 390 59" fill="none" xmlns="http://www.w3.org/2000/svg">
<path d="M116.165 0.578429H124.455V37.3501C124.455 40.6555 125.09 43.4099 126.361 45.6134C127.632 47.7619 129.373 49.3595 131.584 50.4062C133.795 51.3978 136.282 51.8936 139.045 51.8936C141.863 51.8936 144.35 51.3978 146.506 50.4062C148.716 49.3595 150.457 47.7619 151.728 45.6134C153 43.4099 153.635 40.6555 153.635 37.3501V0.578429H161.925V37.1849C161.925 40.9309 161.29 44.1811 160.018 46.9356C158.803 49.6349 157.089 51.8936 154.879 53.7115C152.723 55.4743 150.264 56.7965 147.501 57.6779C144.793 58.5593 141.946 59 138.962 59C134.983 59 131.252 58.2288 127.771 56.6863C124.289 55.0887 121.47 52.6923 119.315 49.4972C117.215 46.247 116.165 42.1429 116.165 37.1849V0.578429Z" fill="black"/>
<path d="M171.471 29.5C171.471 25.148 172.217 21.1816 173.709 17.6008C175.201 13.965 177.274 10.8525 179.927 8.2633C182.579 5.61905 185.647 3.58076 189.128 2.14846C192.665 0.716152 196.479 0 200.568 0C206.371 0 211.539 1.34967 216.071 4.04902C220.658 6.74836 224.14 10.6321 226.516 15.7003L219.884 18.0966C218.558 15.5075 216.872 13.4141 214.827 11.8165C212.782 10.219 210.544 9.03454 208.112 8.2633C205.681 7.49206 203.221 7.10644 200.734 7.10644C196.81 7.10644 193.246 8.0154 190.04 9.83333C186.89 11.6513 184.403 14.2404 182.579 17.6008C180.811 20.9613 179.927 24.9276 179.927 29.5C179.927 34.0173 180.811 37.9561 182.579 41.3165C184.403 44.6769 186.89 47.2937 190.04 49.1667C193.246 50.9846 196.81 51.8936 200.734 51.8936C203.277 51.8936 205.791 51.4804 208.278 50.6541C210.765 49.8277 213.086 48.5056 215.242 46.6877C217.397 44.8147 219.166 42.3908 220.547 39.416L227.179 41.7297C224.692 47.5691 221.128 51.9211 216.485 54.7857C211.843 57.5952 206.537 59 200.568 59C196.479 59 192.665 58.2839 189.128 56.8515C185.647 55.4192 182.579 53.381 179.927 50.7367C177.274 48.0924 175.201 44.9799 173.709 41.3992C172.217 37.7633 171.471 33.7969 171.471 29.5Z" fill="black"/>
<path d="M238.012 0.578429H246.302V25.6162H275.482V0.578429H283.689V58.4216H275.482V32.5574H246.302V58.4216H238.012V0.578429Z" fill="black"/>
<path d="M335.664 7.51961H305.157V25.6162H328.037V32.5574H305.157V51.4804H335.664V58.4216H296.867V0.578429H335.664V7.51961Z" fill="black"/>
<path d="M380.467 17.8487C380.467 14.7087 379.527 12.2021 377.648 10.3291C375.769 8.45611 372.785 7.51961 368.695 7.51961H355.431V28.0952H368.778C371.486 28.0952 373.696 27.6821 375.41 26.8557C377.123 25.9743 378.394 24.7624 379.223 23.2199C380.052 21.6774 380.467 19.887 380.467 17.8487ZM368.695 0.578429C373.282 0.578429 377.04 1.37722 379.969 2.97479C382.954 4.51727 385.164 6.5831 386.601 9.17227C388.093 11.7614 388.839 14.6536 388.839 17.8487C388.839 19.9421 388.48 22.0079 387.762 24.0462C387.043 26.0845 385.883 27.9575 384.28 29.6653C382.677 31.3179 380.577 32.6401 377.98 33.6317C375.437 34.5682 372.37 35.0364 368.778 35.0364H355.431V58.4216H347.141V0.578429H368.695ZM374 32.2269L390 58.4216H380.632L365.213 32.2269H374Z" fill="black"/>
<path fill-rule="evenodd" clip-rule="evenodd" d="M28.2687 26.8557C26.5554 27.6821 24.3448 28.0952 21.6367 28.0952C21.6367 28.0952 13.5022 28.0952 8.28994 28.0952C5.05251 28.0952 0 28.0952 0 28.0952V58.4216H8.28994V35.0364H21.6367C25.229 35.0364 28.2963 34.5682 30.8386 33.6317C33.4361 32.6401 35.5362 31.3179 37.1389 29.6653C38.7416 28.0126 39.9022 26.1671 40.6207 24.1289C41.3391 22.0355 41.6984 19.9421 41.6984 17.8487C41.6984 14.7087 40.9523 11.8441 39.4601 9.2549C38.0232 6.61064 35.8125 4.51727 32.8281 2.97479C29.899 1.37722 26.1686 0.578429 21.6367 0.578429H0V7.51961H8.28994H21.6367C25.7264 7.51961 28.7108 8.42857 30.5899 10.2465C32.4689 12.0644 33.4084 14.5985 33.4084 17.8487C33.4084 19.887 32.9939 21.6774 32.1649 23.2199C31.336 24.7624 30.0372 25.9743 28.2687 26.8557Z" fill="black"/>
<path d="M56.7919 8.2633C54.1391 10.9076 52.0666 14.0201 50.5744 17.6008C49.5685 20.0148 48.9016 22.6039 48.5738 25.3683H57.0493C57.4285 22.4658 58.227 19.8766 59.4447 17.6008C61.2684 14.2404 63.7554 11.6513 66.9056 9.83333C70.0558 8.0154 73.6205 7.10644 77.5996 7.10644C81.5235 7.10644 85.0329 8.0154 88.1278 9.83333C91.278 11.6513 93.765 14.2404 95.5888 17.6008C96.8445 19.8766 97.6679 22.4658 98.059 25.3683H106.46C106.132 22.6039 105.465 20.0148 104.459 17.6008C102.967 14.0201 100.894 10.9076 98.2416 8.2633C95.5888 5.61905 92.4939 3.58076 88.9568 2.14846C85.4198 0.716152 81.6341 0 77.5996 0C73.5099 0 69.6689 0.716152 66.0766 2.14846C62.5396 3.58076 59.4447 5.61905 56.7919 8.2633Z" fill="black"/>
<path d="M66.0766 56.8515C69.6689 58.2839 73.5099 59 77.5996 59C81.6341 59 85.4198 58.2839 88.9568 56.8515C92.4939 55.4192 95.5888 53.4085 98.2416 50.8193C100.894 48.1751 102.967 45.0626 104.459 41.4818C105.466 39.0282 106.133 36.4114 106.461 33.6317H98.0542C97.6612 36.5057 96.8394 39.0949 95.5888 41.3992C93.765 44.7596 91.278 47.3487 88.1278 49.1667C85.0329 50.9846 81.5235 51.8936 77.5996 51.8936C73.6205 51.8936 70.0558 50.9846 66.9056 49.1667C63.7554 47.3487 61.2684 44.7596 59.4447 41.3992C58.232 39.0949 57.4351 36.5057 57.0539 33.6317H48.5728C48.9002 36.4114 49.5674 39.0281 50.5744 41.4818C52.0666 45.0626 54.1391 48.1751 56.7919 50.8193C59.4447 53.4085 62.5396 55.4192 66.0766 56.8515Z" fill="black"/>
<path d="M77.4682 21C77.3484 21.0443 77.329 21.0679 77.2637 21.1762C77.2243 21.2782 77.1936 21.3825 77.1628 21.4874C77.1534 21.5186 77.1439 21.5499 77.1342 21.5822C77.1138 21.6499 77.0936 21.7176 77.0734 21.7854C77.0415 21.8928 77.0092 22.0001 76.9768 22.1074C76.8779 22.4354 76.7802 22.7637 76.6835 23.0923C76.6443 23.2253 76.6048 23.3583 76.5652 23.4912C76.538 23.5832 76.5113 23.6753 76.4846 23.7675C76.2361 24.6119 75.8428 25.3803 75.3146 26.0832C75.2901 26.1163 75.2656 26.1493 75.2403 26.1834C74.8707 26.658 74.4189 27.1008 73.9223 27.4405C73.9 27.4559 73.8776 27.4714 73.8545 27.4873C73.1028 28.0021 72.285 28.3294 71.4142 28.5875C71.3112 28.618 71.2083 28.649 71.1054 28.6801C70.7992 28.7724 70.4926 28.8632 70.1852 28.9511C70.0658 28.9853 69.9466 29.0198 69.8274 29.0543C69.7453 29.0778 69.663 29.1006 69.5806 29.1235C69.5308 29.1378 69.481 29.1522 69.4311 29.1665C69.3883 29.1786 69.3454 29.1906 69.3013 29.203C69.1728 29.2568 69.1037 29.3178 69.0147 29.4241C68.9951 29.5133 68.9951 29.5133 69.0147 29.5982C69.1191 29.7262 69.2148 29.7674 69.3716 29.8132C69.4039 29.8228 69.4039 29.8228 69.4369 29.8326C69.508 29.8537 69.5794 29.8742 69.6507 29.8946C69.701 29.9094 69.7512 29.9242 69.8015 29.9391C69.9341 29.9783 70.067 30.0169 70.1999 30.0554C70.3321 30.0938 70.4643 30.1326 70.5965 30.1714C70.6222 30.1789 70.6479 30.1865 70.6744 30.1943C70.726 30.2094 70.7776 30.2245 70.8292 30.2397C70.8803 30.2547 70.9314 30.2697 70.9826 30.2847C71.2977 30.377 71.6122 30.4708 71.9252 30.5701C71.9692 30.5841 71.9692 30.5841 72.0142 30.5983C73.3753 31.0357 74.577 31.8849 75.419 33.0435C75.4335 33.0635 75.4481 33.0835 75.4631 33.104C75.6499 33.3639 75.8116 33.636 75.9628 33.9179C75.9774 33.9446 75.992 33.9713 76.007 33.9988C76.3477 34.6517 76.5389 35.3717 76.7439 36.0754C76.78 36.1991 76.8165 36.3228 76.8529 36.4464C76.8742 36.519 76.8956 36.5915 76.9169 36.6641C76.9308 36.7113 76.9446 36.7584 76.9585 36.8056C77.0217 37.0201 77.0847 37.2346 77.1437 37.4503C77.1515 37.4781 77.1592 37.5059 77.1672 37.5345C77.1863 37.6036 77.2049 37.6727 77.2234 37.7419C77.267 37.8547 77.3083 37.911 77.4029 37.9853C77.5073 38.0049 77.5073 38.0049 77.6118 37.9853C77.7206 37.8702 77.775 37.7669 77.8193 37.6159C77.8309 37.5774 77.8424 37.5388 77.8542 37.4991C77.8662 37.4575 77.8782 37.4159 77.8906 37.373C77.9105 37.3061 77.9303 37.2393 77.9501 37.1724C77.9779 37.0784 78.0053 36.9843 78.0327 36.8902C78.0662 36.7753 78.1001 36.6605 78.1341 36.5457C78.1407 36.5232 78.1474 36.5006 78.1542 36.4774C78.1677 36.4319 78.1811 36.3863 78.1946 36.3408C78.2148 36.2723 78.235 36.2038 78.2552 36.1353C78.3499 35.8142 78.4465 35.4938 78.5451 35.1739C78.5638 35.1128 78.5638 35.1128 78.5828 35.0505C78.8471 34.1983 79.2565 33.409 79.8393 32.7303C79.8649 32.7003 79.8905 32.6703 79.9168 32.6393C79.9936 32.5518 80.0725 32.4668 80.1526 32.3823C80.1684 32.3653 80.1843 32.3483 80.2006 32.3308C81.4813 30.9662 83.2114 30.5115 84.9478 30.001C84.9857 29.9897 85.0236 29.9785 85.0626 29.967C85.2192 29.9208 85.3756 29.8752 85.5338 29.835C85.599 29.8183 85.599 29.8183 85.6654 29.8011C85.7008 29.7926 85.7362 29.7841 85.7726 29.7754C85.8864 29.7263 85.9338 29.6669 86 29.5633C86 29.4546 86 29.4546 85.9652 29.3545C85.8587 29.2561 85.7506 29.2202 85.6127 29.1799C85.5694 29.1671 85.526 29.1543 85.4814 29.1411C85.4583 29.1344 85.4351 29.1277 85.4113 29.1208C85.3375 29.0995 85.2639 29.0778 85.1902 29.0561C85.059 29.0173 84.9276 28.9789 84.7962 28.9406C84.1668 28.757 83.5379 28.5729 82.9156 28.366C82.852 28.3449 82.852 28.3449 82.7872 28.3234C81.9289 28.0344 81.1731 27.5675 80.5079 26.9539C80.441 26.8927 80.3727 26.8346 80.3027 26.7771C80.1682 26.6619 80.0565 26.5326 79.9438 26.3964C79.9213 26.37 79.9213 26.37 79.8985 26.343C79.2135 25.5335 78.7797 24.6009 78.4726 23.5924C78.4442 23.4989 78.4154 23.4054 78.3865 23.312C78.2808 22.9682 78.1787 22.6234 78.0796 22.2776C78.0593 22.2073 78.039 22.137 78.0188 22.0666C77.9799 21.9319 77.9418 21.7969 77.9042 21.6618C77.8865 21.6001 77.8688 21.5384 77.8511 21.4768C77.8397 21.4348 77.8397 21.4348 77.8281 21.392C77.7717 21.1991 77.696 21.0046 77.4682 21Z" fill="black"/>
</svg>
