<svg width="934" height="358" viewBox="0 0 934 358" fill="none" xmlns="http://www.w3.org/2000/svg">
<path d="M484.905 5.00098C350.559 62.4368 276.018 99.7742 159.399 167.937C157.307 169.16 158.767 172.393 161.056 171.598C255.072 138.96 309.182 126.205 395.405 114.501C28.6562 200.121 -193.756 503.279 255.405 259.501C316.391 221.006 351.293 196.271 405.061 152.254C406.873 150.771 409.36 153.102 408.006 155.013C358.58 224.757 331.743 267 287.405 339.001C354.666 231.742 425.371 164.091 570.904 39.001C481.27 139.083 449.996 181.602 458.225 196.197C458.341 196.402 458.492 196.583 458.701 196.69C464.101 199.455 488.585 179.952 529.304 147.38C530.92 146.088 533.199 147.794 532.412 149.707C524.46 169.022 521.135 179.941 539.404 175.001C793.352 115.572 850.288 111.842 927.037 109.685C929.496 109.616 929.718 113.278 927.303 113.747C538.361 189.22 406.332 236.641 228.905 322.001" stroke="#C3FF9C" stroke-width="10" stroke-linecap="round"/>
</svg>
