<svg width="112" height="15" viewBox="0 0 112 15" fill="none" xmlns="http://www.w3.org/2000/svg">
<path d="M8.43037 4.19727C8.36408 3.577 8.08473 3.09405 7.5923 2.7484C7.10461 2.40276 6.47014 2.22994 5.68889 2.22994C5.13965 2.22994 4.66853 2.3128 4.27554 2.47852C3.88255 2.64423 3.58189 2.86914 3.37355 3.15323C3.16522 3.43732 3.05868 3.76166 3.05395 4.12624C3.05395 4.42927 3.12261 4.69206 3.25992 4.9146C3.40196 5.13713 3.59372 5.32653 3.8352 5.48278C4.07668 5.63429 4.3442 5.76213 4.63776 5.8663C4.93132 5.97047 5.22725 6.05806 5.52554 6.12908L6.88918 6.46999C7.43842 6.59783 7.96636 6.77066 8.47298 6.98846C8.98435 7.20626 9.44126 7.48088 9.84372 7.81232C10.2509 8.14376 10.5729 8.54386 10.8096 9.01261C11.0464 9.48136 11.1647 10.0306 11.1647 10.6603C11.1647 11.5126 10.9469 12.2631 10.5113 12.9118C10.0757 13.5557 9.446 14.06 8.62213 14.4245C7.803 14.7844 6.81105 14.9643 5.64628 14.9643C4.51465 14.9643 3.53217 14.7891 2.69884 14.4387C1.87024 14.0884 1.22156 13.577 0.752813 12.9047C0.288798 12.2323 0.0378511 11.4132 -2.77162e-05 10.4473H2.5923C2.63018 10.9539 2.78643 11.3753 3.06105 11.7115C3.33567 12.0476 3.69315 12.2986 4.1335 12.4643C4.57857 12.63 5.07573 12.7129 5.62497 12.7129C6.19789 12.7129 6.69978 12.6277 7.13065 12.4572C7.56626 12.282 7.90717 12.0405 8.15338 11.7328C8.39959 11.4203 8.52507 11.0557 8.5298 10.639C8.52507 10.2602 8.4138 9.94774 8.196 9.70153C7.97819 9.45058 7.67279 9.24225 7.2798 9.07653C6.89154 8.90607 6.437 8.75456 5.91617 8.62198L4.26134 8.19585C3.06342 7.88808 2.11645 7.4217 1.42043 6.7967C0.729139 6.16696 0.383495 5.33126 0.383495 4.28959C0.383495 3.43259 0.615503 2.68211 1.07952 2.03817C1.54827 1.39424 2.1851 0.894709 2.99003 0.539594C3.79495 0.179746 4.70641 -0.000178099 5.7244 -0.000178099C6.7566 -0.000178099 7.66096 0.179746 8.43747 0.539594C9.21872 0.894709 9.83189 1.3895 10.277 2.02397C10.722 2.6537 10.9517 3.37814 10.9659 4.19727H8.43037ZM26.511 7.47141C26.511 9.03865 26.2174 10.381 25.6303 11.4984C25.0479 12.6111 24.2525 13.4634 23.2439 14.0552C22.2401 14.6471 21.1014 14.943 19.8277 14.943C18.5541 14.943 17.413 14.6471 16.4044 14.0552C15.4007 13.4586 14.6052 12.604 14.0181 11.4913C13.4357 10.3739 13.1445 9.03391 13.1445 7.47141C13.1445 5.90418 13.4357 4.56422 14.0181 3.45153C14.6052 2.3341 15.4007 1.47946 16.4044 0.887606C17.413 0.29575 18.5541 -0.000178099 19.8277 -0.000178099C21.1014 -0.000178099 22.2401 0.29575 23.2439 0.887606C24.2525 1.47946 25.0479 2.3341 25.6303 3.45153C26.2174 4.56422 26.511 5.90418 26.511 7.47141ZM23.8618 7.47141C23.8618 6.36819 23.689 5.4378 23.3434 4.68022C23.0025 3.91791 22.529 3.34263 21.9229 2.95437C21.3169 2.56138 20.6185 2.36488 19.8277 2.36488C19.037 2.36488 18.3386 2.56138 17.7326 2.95437C17.1265 3.34263 16.6507 3.91791 16.305 4.68022C15.9641 5.4378 15.7937 6.36819 15.7937 7.47141C15.7937 8.57463 15.9641 9.5074 16.305 10.2697C16.6507 11.0273 17.1265 11.6026 17.7326 11.9956C18.3386 12.3838 19.037 12.5779 19.8277 12.5779C20.6185 12.5779 21.3169 12.3838 21.9229 11.9956C22.529 11.6026 23.0025 11.0273 23.3434 10.2697C23.689 9.5074 23.8618 8.57463 23.8618 7.47141ZM29.0021 14.7441V0.198686H34.5703C35.6214 0.198686 36.495 0.364405 37.191 0.695844C37.8918 1.02255 38.415 1.46999 38.7606 2.03817C39.111 2.60636 39.2862 3.2503 39.2862 3.96999C39.2862 4.56185 39.1726 5.06848 38.9453 5.48988C38.718 5.90655 38.4126 6.24509 38.0291 6.5055C37.6456 6.76592 37.2171 6.95295 36.7436 7.06658V7.20863C37.2597 7.23704 37.7545 7.39566 38.228 7.68448C38.7062 7.96857 39.0968 8.37103 39.3998 8.89187C39.7029 9.4127 39.8544 10.0424 39.8544 10.7811C39.8544 11.5339 39.6721 12.211 39.3075 12.8123C38.9429 13.4089 38.3937 13.88 37.6598 14.2257C36.9259 14.5713 36.0026 14.7441 34.8899 14.7441H29.0021ZM31.637 12.5424H34.4709C35.4273 12.5424 36.1162 12.3601 36.5376 11.9956C36.9638 11.6262 37.1768 11.1528 37.1768 10.5751C37.1768 10.1442 37.0703 9.75598 36.8572 9.41033C36.6441 9.05996 36.3411 8.78533 35.9481 8.58647C35.5551 8.38287 35.0864 8.28107 34.5419 8.28107H31.637V12.5424ZM31.637 6.38477H34.2436C34.6981 6.38477 35.1077 6.30191 35.4723 6.13619C35.8369 5.96573 36.1233 5.72662 36.3316 5.41886C36.5447 5.10636 36.6513 4.73704 36.6513 4.3109C36.6513 3.74745 36.4524 3.28344 36.0547 2.91886C35.6617 2.55427 35.0769 2.37198 34.3004 2.37198H31.637V6.38477ZM42.1466 14.7441V0.198686H47.6012C48.7186 0.198686 49.6561 0.392814 50.4137 0.781072C51.176 1.16933 51.7513 1.71384 52.1395 2.41459C52.5325 3.11062 52.729 3.92264 52.729 4.85067C52.729 5.78344 52.5302 6.5931 52.1324 7.27965C51.7394 7.96147 51.1594 8.48941 50.3924 8.86346C49.6253 9.23278 48.6831 9.41744 47.5657 9.41744H43.6807V7.22994H47.2106C47.864 7.22994 48.399 7.13997 48.8157 6.96005C49.2323 6.77539 49.5401 6.50787 49.739 6.15749C49.9426 5.80238 50.0444 5.36677 50.0444 4.85067C50.0444 4.33458 49.9426 3.89424 49.739 3.52965C49.5354 3.16033 49.2252 2.88098 48.8086 2.69158C48.3919 2.49745 47.8545 2.40039 47.1964 2.40039H44.7816V14.7441H42.1466ZM49.6608 8.15323L53.2617 14.7441H50.3214L46.7844 8.15323H49.6608ZM55.1544 14.7441V0.198686H64.6147V2.40749H57.7894V6.35636H64.1246V8.56516H57.7894V12.5353H64.6715V14.7441H55.1544ZM72.2638 0.198686H75.4883L79.8064 10.7385H79.9769L84.2951 0.198686H87.5195V14.7441H84.9911V4.75124H84.8562L80.8363 14.7015H78.9471L74.9272 4.72994H74.7922V14.7441H72.2638V0.198686ZM93.0238 0.198686V14.7441H90.3888V0.198686H93.0238ZM95.8771 0.198686H99.1015L103.42 10.7385H103.59L107.908 0.198686H111.133V14.7441H108.604V4.75124H108.469L104.45 14.7015H102.56L98.5405 4.72994H98.4055V14.7441H95.8771V0.198686Z" fill="#c3ff9c"/>
</svg>
