<svg width="232" height="76" viewBox="0 0 232 76" fill="none" xmlns="http://www.w3.org/2000/svg">
<path fill-rule="evenodd" clip-rule="evenodd" d="M36.4955 0C40.8255 0 43.2998 0.308943 46.0833 1.23577C48.1246 1.97724 50.97 3.21301 52.4546 4.01626C53.8773 4.8813 56.4134 6.98211 58.1454 8.65041C59.8774 10.3805 61.2383 12.1106 61.2383 12.5431C61.2383 12.9138 58.8258 14.9528 55.9186 16.9919C52.9494 19.0309 50.2896 20.8228 49.9803 21.0081C49.7329 21.1935 50.1659 22.5528 50.97 24.0976C51.836 25.6423 52.9494 28.5463 53.5062 30.5854C54.001 32.6244 54.434 36.0846 54.434 38.3089C54.434 40.5333 54.001 43.9935 53.4443 46.0325C52.9494 48.0715 51.7742 51.161 50.8463 52.8293C49.9185 54.5594 47.5061 57.587 45.4648 59.6878C43.0524 62.0976 40.3307 64.0748 37.7327 65.3106C35.5058 66.361 32.2274 67.535 30.4336 67.9057C28.7016 68.2764 25.7324 68.5854 24.0004 68.5854C22.2066 68.5854 19.0519 68.1528 17.0106 67.5967C14.9694 67.1024 11.6291 65.7431 9.64967 64.6927C7.67025 63.5805 4.63926 61.4179 3.03098 59.8114C1.36085 58.1431 0 56.3512 0 55.7951C0 55.1155 2.10313 53.2 5.31969 50.9756C8.28882 48.9366 10.7631 47.0829 10.8868 46.8358C11.0105 46.5268 10.3301 44.6114 9.27852 42.5106C8.28882 40.348 7.11354 36.9496 6.74239 34.9106C6.37125 32.8715 6.24754 29.535 6.43311 27.4959C6.61868 25.4569 7.36096 22.1203 8.04139 20.0813C8.78367 18.0423 9.95895 15.3854 10.7012 14.2114C11.4435 13.0374 13.1755 10.813 14.5364 9.33008C15.8972 7.84716 18.2478 5.80813 19.7942 4.75772C21.3406 3.70732 24.3716 2.22439 26.5984 1.42114C29.6913 0.370732 31.98 0 36.4955 0ZM26.7222 19.3398C25.918 20.0813 24.6809 21.8114 23.9386 23.1707C23.0726 24.9008 22.5777 27.4341 22.2685 31.5122C21.9592 35.3431 21.4025 38.2472 20.6602 39.7919C19.9798 41.0894 18.0622 43.1902 16.2683 44.5496L12.9899 46.9594C15.1549 49.4927 16.8869 50.7285 18.2478 51.3463C19.7942 52.0878 22.1447 52.5203 24.4334 52.5203C27.0314 52.5203 28.949 52.0878 30.8666 51.0992C32.413 50.3577 34.3305 48.9366 35.1347 47.8862C36.0007 46.8358 37.1141 45.0439 37.5471 43.8699C38.042 42.6959 38.5987 39.2358 38.7842 36.1463C39.0317 32.5626 39.5265 29.7821 40.2688 28.2374C40.9492 26.9398 42.8049 25.0244 44.5369 23.7886C46.2689 22.6146 47.6298 21.3171 47.6298 21.0081C47.6298 20.6992 46.6401 19.5252 45.4648 18.5366C44.2895 17.548 42.2482 16.4358 40.9492 16.065C39.7121 15.7561 37.5471 15.4472 36.1862 15.4472C34.8254 15.4472 32.4748 16.065 30.9284 16.7447C29.382 17.4244 27.4644 18.5984 26.7222 19.3398ZM144.745 19.3398C148.58 19.4634 150.003 19.8341 152.786 21.3789C154.766 22.4911 157.116 24.5301 158.539 26.322C159.776 27.9902 161.261 30.7707 161.756 32.439C162.312 34.1691 162.683 37.8764 162.683 40.7805C162.683 44.735 162.312 46.8358 161.261 49.4309C160.518 51.2846 159.034 53.9415 157.982 55.3008C156.931 56.6602 154.518 58.5756 152.725 59.5642C150.312 60.8618 148.271 61.4797 145.364 61.665C142.951 61.8504 140.353 61.665 138.869 61.1707C137.508 60.7382 135.219 59.5642 131.136 56.8455V65.4959C131.136 70.2537 131.013 74.5789 130.827 75.0732C130.58 75.8146 129.404 76 120.002 76V19.7724H125.26C129.404 19.7724 130.58 19.9577 130.827 20.6992C131.013 21.1935 131.136 22.1821 131.136 22.8618C131.136 24.0358 131.322 23.974 133.734 22.3057C135.219 21.3789 137.198 20.2667 138.25 19.8959C139.24 19.4634 142.209 19.278 144.745 19.3398ZM135.343 31.0179C134.353 31.6358 133.054 33.2423 132.374 34.6016C131.569 36.1463 131.136 38.3089 131.136 40.4715C131.136 42.6341 131.569 44.7967 132.374 46.3415C133.054 47.7008 134.539 49.4309 135.59 50.1724C136.704 50.9138 138.869 51.6553 140.415 51.7789C142.58 52.026 143.817 51.7171 145.858 50.6049C147.343 49.8016 149.137 48.1333 149.879 46.9594C150.621 45.6 151.24 43.3756 151.426 41.0894C151.611 38.0618 151.364 36.8878 150.188 34.6016C149.261 32.8715 147.776 31.3268 146.23 30.4618C144.807 29.5967 142.827 29.1024 141.343 29.1024C139.982 29.1024 138.436 29.2878 137.941 29.535C137.446 29.7203 136.271 30.4 135.343 31.0179ZM175.797 3.08943C177.096 3.08943 178.89 3.46016 179.818 3.95447C180.808 4.38699 181.921 5.49919 182.292 6.42602C182.725 7.29106 183.096 8.65041 183.096 9.45366C183.096 10.1951 182.54 11.7398 181.859 12.852C180.993 14.2114 179.942 15.0146 178.271 15.3854C176.849 15.7561 175.302 15.7561 174.127 15.3854C173.075 15.0764 171.776 14.335 171.158 13.7171C170.539 13.161 169.921 11.8634 169.735 10.813C169.488 9.82439 169.55 8.27967 169.859 7.41463C170.106 6.54959 171.034 5.25203 171.838 4.51057C172.89 3.52195 174.189 3.08943 175.797 3.08943ZM92.2285 8.83577C97.4245 8.95935 98.5998 9.2065 101.816 10.813C104.352 12.1106 106.023 13.5317 107.383 15.4472C108.373 16.9919 109.425 19.3398 109.734 20.6992C110.043 22.4911 109.92 23.2943 109.363 23.6033C108.93 23.8504 106.456 24.0976 103.919 24.0976C101.383 24.0976 98.9709 23.8504 98.6616 23.6033C98.2905 23.3561 97.6101 22.3675 97.1152 21.3171C96.5585 20.3285 95.4451 19.0927 94.641 18.722C93.775 18.2894 91.9811 17.9187 90.6203 17.9187C89.0738 17.8569 87.5274 18.3512 86.414 19.1545C85.0531 20.2049 84.7439 20.8846 84.7439 23.1707C84.7439 25.5187 84.9913 26.1366 86.414 27.1252C87.4037 27.8049 91.4863 29.4732 95.5688 30.8325C99.6514 32.2537 103.981 34.0455 105.157 34.9106C106.332 35.7756 107.94 37.3203 108.744 38.4325C109.734 39.8537 110.291 41.7691 110.538 44.4878C110.847 47.8862 110.662 49.0602 109.425 51.8407C108.621 53.6943 106.95 56.0423 105.775 57.0309C104.6 58.0813 102.373 59.5024 100.827 60.1821C98.7235 61.1089 96.7441 61.4179 92.476 61.4797C88.7646 61.4797 85.8779 61.1295 83.816 60.4293C82.084 59.8114 79.486 58.3285 78.0015 57.0309C76.455 55.7333 74.7231 53.5707 74.1045 52.2114C73.5478 50.852 72.9911 48.813 72.9911 45.7236H78.8675C84.3109 45.7236 84.7439 45.7854 84.7439 46.9594C84.7439 47.639 85.548 49.122 86.5377 50.2342C88.146 52.026 88.7027 52.2114 91.7337 52.2114C94.2698 52.2114 95.6307 51.8407 96.9297 50.9138C97.9812 50.1106 98.7235 48.9366 98.8472 47.8244C98.9709 46.8358 98.9091 45.4146 98.7235 44.6732C98.5379 43.8699 97.4245 42.6959 96.3111 42.0163C95.2595 41.3366 91.2388 39.8537 87.5274 38.6797C83.7542 37.5057 79.6097 35.7138 78.2489 34.787C76.888 33.7984 75.1561 31.7594 74.4138 30.2764C73.4241 28.2992 72.9911 26.3837 72.9911 23.7886C72.9911 21.5642 73.4859 19.0927 74.1045 17.6098C74.7231 16.2504 76.3932 14.1496 77.754 12.9756C79.1149 11.8016 81.5892 10.3187 83.2593 9.7626C85.4861 8.95935 87.8986 8.7122 92.2285 8.83577ZM214.952 19.1545C216.623 19.1545 219.282 19.5252 220.829 20.0813C222.375 20.5756 224.726 21.935 226.087 23.0472C227.509 24.2829 229.18 26.5073 230.046 28.4846C231.468 31.574 231.592 32.6862 231.839 44.7967C232.025 51.9642 231.963 58.5138 231.716 59.5024C231.345 61.1707 231.345 61.1707 220.829 61.1707L220.643 48.0715C220.52 37.135 220.272 34.6016 219.406 32.9333C218.849 31.8211 217.489 30.4618 216.499 29.9675C215.447 29.4732 213.406 29.0407 211.86 29.0407C210.313 29.0407 208.21 29.4732 207.22 29.9675C206.169 30.4618 204.994 31.6976 204.561 32.748C203.942 34.0455 203.695 38.1236 203.633 46.9594C203.571 53.7561 203.385 59.7496 203.2 60.2439C202.952 60.9854 201.777 61.1707 197.633 61.1707C193.488 61.1707 192.313 60.9854 192.065 60.2439C191.88 59.7496 191.756 50.852 191.756 40.4715C191.756 30.0911 191.88 21.1935 192.065 20.6992C192.313 19.9577 193.488 19.7724 202.89 19.7724L203.509 23.4797L205.179 22.2439C206.169 21.5642 208.025 20.5756 209.385 20.0813C210.746 19.587 213.22 19.2163 214.952 19.1545ZM170.725 19.7724H181.859V61.1707H170.725V19.7724Z" fill="#EFFFE5"/>
</svg>
